<svg xmlns="http://www.w3.org/2000/svg" width="96" height="95" viewBox="0 0 96 95"><defs><mask id="d1a5b" width="2.16" height="2.17" x="-1.08" y="-1.09"><path fill="#fff" d="M30.5 23.5h36v34h-36z"/><path d="M63.091 54.082l-29.857-3.808L51.461 26.32z"/></mask><filter id="d1a5a" width="152.3" height="153.8" x="-28.3" y="-34" filterUnits="userSpaceOnUse"><feOffset dx="-1.3" dy="4.8" in="SourceGraphic" result="FeOffset1239Out"/><feGaussianBlur in="FeOffset1239Out" result="FeGaussianBlur1240Out" stdDeviation="19 19"/></filter><clipPath id="d1a5c"><path fill="#fff" d="M28 60V21h41v39zm23.46-33.679L33.235 50.274l29.857 3.808z"/></clipPath></defs><g><g opacity=".15"><g filter="url(#d1a5a)"><path fill="none" stroke="#caecf7" stroke-opacity=".75" stroke-width="5" d="M63.091 54.082v0l-29.857-3.808v0L51.461 26.32v0z" mask="url(&quot;#d1a5b&quot;)"/><path fill="#caecf7" fill-opacity=".75" d="M63.091 54.082l-29.857-3.808L51.461 26.32z"/></g><path fill="#fff" d="M63.091 54.082l-29.857-3.808L51.461 26.32z"/><path fill="none" stroke="#000" stroke-linecap="round" stroke-linejoin="round" stroke-miterlimit="20" stroke-width="10" d="M63.091 54.082v0l-29.857-3.808v0L51.461 26.32v0z" clip-path="url(&quot;#d1a5c&quot;)"/></g></g></svg>