<svg xmlns="http://www.w3.org/2000/svg" width="100" height="100" viewBox="0 0 100 100"><defs><mask id="we34b" width="2.2" height="2.2" x="-1.1" y="-1.1"><path fill="#fff" d="M36.5 30.5h30v30h-30z"/><path d="M39.19 42.201l15.608-9.01 9.011 15.607-15.607 9.011z"/></mask><filter id="we34a" width="146.3" height="149.8" x="-22.3" y="-27" filterUnits="userSpaceOnUse"><feOffset dx="-1.3" dy="4.8" in="SourceGraphic" result="FeOffset1172Out"/><feGaussianBlur in="FeOffset1172Out" result="FeGaussianBlur1173Out" stdDeviation="19 19"/></filter><clipPath id="we34c"><path fill="#fff" d="M34 63V28h35v35zm14.202-5.191l15.607-9.011L54.8 33.19 39.19 42.201z"/></clipPath></defs><g><g opacity=".5"><g filter="url(#we34a)"><path fill="none" stroke="#caecf7" stroke-opacity=".75" stroke-width="5" d="M39.19 42.201v0l15.608-9.01v0l9.011 15.607v0l-15.607 9.011v0z" mask="url(&quot;#we34b&quot;)"/><path fill="#caecf7" fill-opacity=".75" d="M39.19 42.201l15.608-9.01 9.011 15.607-15.607 9.011z"/></g><path fill="#f14046" d="M39.19 42.201l15.608-9.01 9.011 15.607-15.607 9.011z"/><path fill="none" stroke="#000" stroke-linecap="round" stroke-linejoin="round" stroke-miterlimit="20" stroke-width="10" d="M39.19 42.201v0l15.608-9.01v0l9.011 15.607v0l-15.607 9.011v0z" clip-path="url(&quot;#we34c&quot;)"/></g></g></svg>