<svg xmlns="http://www.w3.org/2000/svg" width="137" height="137" viewBox="0 0 137 137"><defs><mask id="ntpab" width="2.09" height="2.09" x="-1.04" y="-1.04"><path fill="#fff" d="M39.5 33.5h61v61h-61z"/><path d="M42.5 64c0-15.188 12.312-27.5 27.5-27.5S97.5 48.812 97.5 64 85.188 91.5 70 91.5 42.5 79.188 42.5 64z"/></mask><filter id="ntpaa" width="177.3" height="180.8" x="-19.3" y="-24" filterUnits="userSpaceOnUse"><feOffset dx="-1.3" dy="4.8" in="SourceGraphic" result="FeOffset1149Out"/><feGaussianBlur in="FeOffset1149Out" result="FeGaussianBlur1150Out" stdDeviation="19 19"/></filter><clipPath id="ntpac"><path fill="#fff" d="M36 98V30h68v68zm34-6.5c15.188 0 27.5-12.312 27.5-27.5S85.188 36.5 70 36.5 42.5 48.812 42.5 64 54.812 91.5 70 91.5z"/></clipPath></defs><g><g opacity=".5"><g filter="url(#ntpaa)"><path fill="none" stroke="#caecf7" stroke-opacity=".75" stroke-width="5" d="M42.5 64c0-15.188 12.312-27.5 27.5-27.5S97.5 48.812 97.5 64 85.188 91.5 70 91.5 42.5 79.188 42.5 64z" mask="url(&quot;#ntpab&quot;)"/><path fill="#caecf7" fill-opacity=".75" d="M42.5 64c0-15.188 12.312-27.5 27.5-27.5S97.5 48.812 97.5 64 85.188 91.5 70 91.5 42.5 79.188 42.5 64z"/></g><path fill="#f14046" d="M42.5 64c0-15.188 12.312-27.5 27.5-27.5S97.5 48.812 97.5 64 85.188 91.5 70 91.5 42.5 79.188 42.5 64z"/><path fill="none" stroke="#000" stroke-linecap="round" stroke-linejoin="round" stroke-miterlimit="20" stroke-width="12" d="M42.5 64c0-15.188 12.312-27.5 27.5-27.5S97.5 48.812 97.5 64 85.188 91.5 70 91.5 42.5 79.188 42.5 64z" clip-path="url(&quot;#ntpac&quot;)"/></g></g></svg>