<svg xmlns="http://www.w3.org/2000/svg" width="92" height="92" viewBox="0 0 92 92"><defs><mask id="4pm7b" width="2.36" height="2.36" x="-1.18" y="-1.18"><path fill="#fff" d="M37.5 31.5h19v19h-19z"/><path d="M47 34a7 7 0 1 1 0 14 7 7 0 0 1 0-14z"/></mask><filter id="4pm7a" width="135.3" height="138.8" x="-21.3" y="-26" filterUnits="userSpaceOnUse"><feOffset dx="-1.3" dy="4.8" in="SourceGraphic" result="FeOffset1063Out"/><feGaussianBlur in="FeOffset1063Out" result="FeGaussianBlur1064Out" stdDeviation="19 19"/></filter><clipPath id="4pm7c"><path fill="#fff" d="M34 54V28h26v26zm6-13a7 7 0 1 0 14 0 7 7 0 0 0-14 0z"/></clipPath></defs><g><g opacity=".5"><g filter="url(#4pm7a)"><path fill="none" stroke="#caecf7" stroke-opacity=".75" stroke-width="5" d="M47 34a7 7 0 1 1 0 14 7 7 0 0 1 0-14z" mask="url(&quot;#4pm7b&quot;)"/><path fill="#caecf7" fill-opacity=".75" d="M47 34a7 7 0 1 1 0 14 7 7 0 0 1 0-14z"/></g><path fill="#f14046" d="M47 34a7 7 0 1 1 0 14 7 7 0 0 1 0-14z"/><path fill="none" stroke="#fff" stroke-linecap="round" stroke-linejoin="round" stroke-miterlimit="20" stroke-width="12" d="M47 34a7 7 0 1 1 0 14 7 7 0 0 1 0-14z" clip-path="url(&quot;#4pm7c&quot;)"/></g></g></svg>