<svg xmlns="http://www.w3.org/2000/svg" width="90" height="90" viewBox="0 0 90 90"><defs><mask id="1fiwb" width="2.16" height="2.17" x="-1.08" y="-1.08"><path fill="#fff" d="M26.5 25.5h37v35h-37z"/><path d="M50.242 57.523L29.867 34.337l30.266-6.053z"/></mask><filter id="1fiwa" width="153.3" height="154.8" x="-32.3" y="-32" filterUnits="userSpaceOnUse"><feOffset dx="-1.3" dy="4.8" in="SourceGraphic" result="FeOffset1195Out"/><feGaussianBlur in="FeOffset1195Out" result="FeGaussianBlur1196Out" stdDeviation="19 19"/></filter><clipPath id="1fiwc"><path fill="#fff" d="M26 61V25h38v36zm34.133-32.716l-30.267 6.053 20.376 23.186z"/></clipPath></defs><g><g opacity=".1"><g filter="url(#1fiwa)"><path fill="none" stroke="#caecf7" stroke-opacity=".75" stroke-width="5" d="M50.242 57.523v0L29.867 34.337v0l30.266-6.053v0z" mask="url(&quot;#1fiwb&quot;)"/><path fill="#caecf7" fill-opacity=".75" d="M50.242 57.523L29.867 34.337l30.266-6.053z"/></g><path fill="#ad94fc" d="M50.242 57.523L29.867 34.337l30.266-6.053z"/><path fill="none" stroke="#673ef4" stroke-linecap="round" stroke-linejoin="round" stroke-miterlimit="20" stroke-width="6" d="M50.242 57.523v0L29.867 34.337v0l30.266-6.053v0z" clip-path="url(&quot;#1fiwc&quot;)"/></g></g></svg>