<svg xmlns="http://www.w3.org/2000/svg" width="114" height="114" viewBox="0 0 114 114"><defs><mask id="9bxvb" width="2.16" height="2.16" x="-1.08" y="-1.08"><path fill="#fff" d="M40.5 34.5h36v36h-36z"/><path d="M43.191 48.398l19.41-11.207 11.207 19.41-19.41 11.207z"/></mask><filter id="9bxva" width="152.3" height="155.8" x="-18.3" y="-23" filterUnits="userSpaceOnUse"><feOffset dx="-1.3" dy="4.8" in="SourceGraphic" result="FeOffset1086Out"/><feGaussianBlur in="FeOffset1086Out" result="FeGaussianBlur1087Out" stdDeviation="19 19"/></filter><clipPath id="9bxvc"><path fill="#fff" d="M38 73V32h41v41zm16.398-5.192l19.41-11.206-11.206-19.41-19.41 11.206z"/></clipPath></defs><g><g><g filter="url(#9bxva)"><path fill="none" stroke="#caecf7" stroke-opacity=".75" stroke-width="5" d="M43.191 48.398v0l19.41-11.207v0l11.207 19.41v0l-19.41 11.207v0z" mask="url(&quot;#9bxvb&quot;)"/><path fill="#caecf7" fill-opacity=".75" d="M43.191 48.398l19.41-11.207 11.207 19.41-19.41 11.207z"/></g><path fill="#f14046" d="M43.191 48.398l19.41-11.207 11.207 19.41-19.41 11.207z"/><path fill="none" stroke="#fff" stroke-linecap="round" stroke-linejoin="round" stroke-miterlimit="20" stroke-width="10" d="M43.191 48.398v0l19.41-11.207v0l11.207 19.41v0l-19.41 11.207v0z" clip-path="url(&quot;#9bxvc&quot;)"/></g></g></svg>